<svg width="185" height="38" viewBox="0 0 185 38" fill="none" xmlns="http://www.w3.org/2000/svg">
<g clip-path="url(#clip0_93_9614)">
<path d="M11.447 16.0588L18.6053 8.90076L25.7675 16.0626L29.9327 11.8974L18.6053 0.569702L7.28174 11.8936L11.447 16.0588Z" fill="#F3BA2F"/>
<path d="M8.50452 18.9994L4.33936 14.8342L0.173983 18.9996L4.33915 23.1648L8.50452 18.9994Z" fill="#F3BA2F"/>
<path d="M11.4463 21.9412L18.6046 29.0993L25.7665 21.9377L29.9341 26.1007L29.932 26.103L18.6046 37.4304L7.28073 26.1068L7.2749 26.1009L11.4463 21.9412Z" fill="#F3BA2F"/>
<path d="M32.8703 23.1667L37.0356 19.0013L32.8705 14.8362L28.7051 19.0016L32.8703 23.1667Z" fill="#F3BA2F"/>
<path d="M22.8301 18.9978H22.8318L18.6052 14.7711L15.4816 17.8947H15.4813L15.1226 18.2537L14.3823 18.994L14.3765 18.9998L14.3823 19.0059L18.6052 23.2288L22.8318 19.0022L22.8339 18.9998L22.8301 18.9978Z" fill="#F3BA2F"/>
<path d="M43.5288 9.50134H52.588C54.8364 9.50134 56.5366 10.0784 57.6889 11.2324C58.5807 12.1262 59.0264 13.234 59.0264 14.5554V14.6113C59.0264 15.1697 58.9574 15.6632 58.8185 16.0911C58.6799 16.5197 58.4948 16.9054 58.2633 17.2498C58.0325 17.5945 57.764 17.897 57.4589 18.1573C57.1535 18.4182 56.8254 18.6417 56.474 18.8275C57.6042 19.256 58.4939 19.8374 59.1426 20.5728C59.7909 21.3085 60.1155 22.3278 60.1155 23.6306V23.6862C60.1155 24.58 59.9438 25.3617 59.5999 26.0322C59.2561 26.7021 58.7635 27.2607 58.1221 27.7076C57.4808 28.1545 56.7096 28.4893 55.8082 28.7129C54.9069 28.9362 53.908 29.0477 52.8119 29.0477H43.5288V9.50134ZM51.6823 17.4036C52.632 17.4036 53.386 17.2411 53.9441 16.915C54.5025 16.5893 54.7817 16.0632 54.7817 15.3374V15.2815C54.7817 14.6302 54.5395 14.1324 54.0556 13.7877C53.5714 13.4433 52.8733 13.2709 51.9615 13.2709H47.717V17.4036H51.6823ZM52.8273 25.2784C53.7767 25.2784 54.5208 25.1066 55.0612 24.7619C55.6009 24.4175 55.8711 23.8821 55.8711 23.1561V23.1004C55.8711 22.4489 55.6196 21.9324 55.1171 21.5505C54.6143 21.1694 53.8046 20.9784 52.6876 20.9784H47.717V25.2787L52.8273 25.2784Z" fill="#F3BA2F"/>
<path d="M65.5112 9.50134H69.8118V29.0483H65.5112V9.50134Z" fill="#F3BA2F"/>
<path d="M76.3247 9.50134H80.2894L89.4487 21.5368V9.50134H93.6931V29.0483H90.0353L80.5688 16.6222V29.0483H76.3247V9.50134Z" fill="#F3BA2F"/>
<path d="M106.712 9.36194H110.677L119.055 29.0483H114.559L112.772 24.6645H104.506L102.719 29.0483H98.3345L106.712 9.36194ZM111.236 20.8663L108.639 14.5278L106.042 20.8663H111.236Z" fill="#F3BA2F"/>
<path d="M123.698 9.50134H127.663L136.822 21.5368V9.50134H141.066V29.0483H137.409L127.942 16.6222V29.0483H123.698V9.50134Z" fill="#F3BA2F"/>
<path d="M156.543 29.3831C155.109 29.3831 153.778 29.1222 152.549 28.6014C151.321 28.0806 150.26 27.3682 149.366 26.4651C148.472 25.5623 147.774 24.4964 147.272 23.2679C146.769 22.039 146.518 20.7266 146.518 19.3303V19.2747C146.518 17.8784 146.769 16.5709 147.272 15.3514C147.774 14.1321 148.472 13.0616 149.366 12.1402C150.259 11.2187 151.33 10.4924 152.577 9.96193C153.824 9.43148 155.203 9.16626 156.71 9.16626C157.622 9.16626 158.455 9.24108 159.209 9.38956C159.963 9.53891 160.647 9.74328 161.262 10.0038C161.876 10.2647 162.443 10.5812 162.965 10.9532C163.486 11.3259 163.97 11.7352 164.417 12.1821L161.681 15.3374C160.917 14.6489 160.14 14.1085 159.349 13.7178C158.557 13.3271 157.669 13.1315 156.682 13.1315C155.863 13.1315 155.104 13.2899 154.407 13.6063C153.708 13.9228 153.108 14.3601 152.605 14.9185C152.103 15.4769 151.712 16.124 151.432 16.8592C151.153 17.5948 151.014 18.3812 151.014 19.2188V19.2744C151.014 20.112 151.153 20.9036 151.432 21.6477C151.712 22.3927 152.097 23.044 152.591 23.6024C153.084 24.1608 153.68 24.6033 154.378 24.9291C155.077 25.2551 155.845 25.4176 156.682 25.4176C157.799 25.4176 158.743 25.2129 159.516 24.8033C160.289 24.3943 161.057 23.8356 161.82 23.1278L164.557 25.8924C164.054 26.4325 163.532 26.9166 162.993 27.3443C162.453 27.7728 161.862 28.1403 161.219 28.4477C160.577 28.7545 159.874 28.9877 159.112 29.1455C158.348 29.3036 157.492 29.3831 156.543 29.3831Z" fill="#F3BA2F"/>
<path d="M169.618 9.50134H184.334V13.3271H173.862V17.2923H183.077V21.1178H173.862V25.2228H184.474V29.0483H169.618V9.50134Z" fill="#F3BA2F"/>
</g>
<defs>
<clipPath id="clip0_93_9614">
<rect width="184" height="36.8606" fill="white" transform="translate(0.333496 0.569702)"/>
</clipPath>
</defs>
</svg>
