<svg width="184" height="26" viewBox="0 0 184 26" fill="none" xmlns="http://www.w3.org/2000/svg">
<g clip-path="url(#clip0_93_9628)">
<path fill-rule="evenodd" clip-rule="evenodd" d="M112.761 13.4046H105.78V19.072H113.89V20.7963H103.656V4.80412H113.779V6.53926H105.78V11.6794H112.761V13.4046ZM120.23 13.2503L122.885 8.91148H125.275L121.358 14.7876L125.397 20.7963H123.029L120.263 16.3476L117.497 20.7963H115.118L119.157 14.7876L115.239 8.91148H117.608L120.23 13.2503ZM137.556 14.9855C137.556 16.7948 137.139 18.2519 136.305 19.3579C135.472 20.4629 134.344 21.0159 132.92 21.0159C131.467 21.0159 130.323 20.5579 129.49 19.6428V25.3656H127.444V8.91148H129.313L129.413 10.2301C130.246 9.20429 131.405 8.69186 132.887 8.69186C134.325 8.69186 135.464 9.23001 136.3 10.3063C137.137 11.3836 137.556 12.8803 137.556 14.7995V14.9855ZM135.509 14.755C135.509 13.4155 135.221 12.357 134.646 11.5805C134.071 10.8049 133.281 10.4161 132.278 10.4161C131.04 10.4161 130.11 10.9622 129.49 12.0533V17.7316C130.103 18.8158 131.04 19.3569 132.301 19.3569C133.281 19.3569 134.062 18.9711 134.64 18.1995C135.219 17.4259 135.509 16.2784 135.509 14.755ZM142.379 20.7963H140.333V3.92468H142.379V20.7963ZM145.113 14.7441C145.113 13.5797 145.343 12.5331 145.804 11.6032C146.265 10.6733 146.906 9.95513 147.729 9.44963C148.551 8.94511 149.49 8.69186 150.545 8.69186C152.175 8.69186 153.494 9.25178 154.501 10.3726C155.507 11.4934 156.01 12.9832 156.01 14.843V14.9855C156.01 16.1429 155.788 17.1816 155.341 18.0996C154.894 19.0196 154.256 19.7348 153.427 20.2463C152.597 20.7597 151.644 21.0159 150.567 21.0159C148.944 21.0159 147.629 20.456 146.622 19.3352C145.616 18.2153 145.113 16.7325 145.113 14.8865V14.7441ZM147.17 14.9855C147.17 16.3041 147.478 17.3616 148.094 18.1609C148.711 18.9583 149.535 19.3579 150.567 19.3579C151.607 19.3579 152.433 18.9523 153.045 18.1441C153.658 17.3349 153.963 16.2012 153.963 14.7441C153.963 13.4402 153.652 12.3847 153.029 11.5755C152.405 10.7663 151.577 10.3617 150.545 10.3617C149.535 10.3617 148.719 10.7604 148.1 11.5587C147.48 12.357 147.17 13.4996 147.17 14.9855ZM164.363 10.7347C164.031 10.6818 163.694 10.6563 163.357 10.6585C162.015 10.6585 161.104 11.2253 160.624 12.36V20.7963H158.577V8.91148H160.569L160.602 10.2846C161.273 9.22309 162.225 8.69186 163.456 8.69186C163.855 8.69186 164.158 8.7433 164.363 8.84619V10.7356V10.7347ZM171.002 21.0159C169.38 21.0159 168.059 20.4867 167.041 19.4291C166.023 18.3707 165.515 16.956 165.515 15.1833V14.8104C165.515 13.6312 165.741 12.5786 166.194 11.6517C166.649 10.7258 167.283 10.0006 168.098 9.47733C168.885 8.96189 169.807 8.68879 170.748 8.69186C172.304 8.69186 173.514 9.20132 174.377 10.2183C175.24 11.2372 175.671 12.6934 175.671 14.5907V15.4365H167.562C167.591 16.6078 167.936 17.5535 168.595 18.2757C169.256 18.9968 170.095 19.3579 171.113 19.3579C171.836 19.3579 172.448 19.2105 172.949 18.9177C173.459 18.6178 173.906 18.2225 174.266 17.7534L175.516 18.7199C174.513 20.2512 173.008 21.0159 171.002 21.0159ZM170.748 10.3617C169.922 10.3617 169.229 10.6595 168.668 11.257C168.108 11.8535 167.76 12.6904 167.628 13.7667H173.625V13.6124C173.565 12.5806 173.285 11.7803 172.784 11.2125C172.282 10.6456 171.604 10.3617 170.748 10.3617ZM183.825 10.7347C183.492 10.6818 183.156 10.6563 182.819 10.6585C181.476 10.6585 180.565 11.2253 180.086 12.36V20.7963H178.039V8.91148H180.03L180.064 10.2846C180.734 9.22309 181.686 8.69186 182.918 8.69186C183.316 8.69186 183.619 8.7433 183.825 8.84619V10.7356V10.7347Z" fill="#140F1F"/>
<path d="M91.4023 1.55444L96.4851 6.63719L91.3835 11.7378L86.3008 6.655L91.4023 1.55444Z" fill="#1F5AF6"/>
<path d="M23.0142 6.34729H20.1948L19.8991 6.61241L17.0065 16.8115H16.9877L13.744 6.61241L13.4492 6.34729H10.5012L10.2054 6.61241L6.98047 16.7552L6.92507 16.7176L6.90628 16.6978L4.01471 6.6134L3.71991 6.34828H0.84318L0.65918 6.6134L5.1741 20.9763L5.4877 21.2602H8.32585L8.63944 20.9763L11.8644 10.701H11.9376L15.1823 20.9763L15.4949 21.2602H18.3697L18.6833 20.9763L23.1982 6.61241L23.0142 6.34729ZM54.9154 6.34729H52.0773L51.7637 6.61241L47.8018 17.228L47.7652 17.2478L43.8398 6.61241L43.5262 6.34729H40.6327L40.4487 6.61241L46.1072 20.9753L46.4376 21.2592H49.0551L49.3865 20.9753L55.1004 6.61142L54.9154 6.34729Z" fill="#140F1F"/>
<path fill-rule="evenodd" clip-rule="evenodd" d="M69.8261 14.3325L69.5491 14.5976L58.8603 14.56C58.9711 15.8282 59.4133 16.7166 60.1869 17.4555C60.998 18.2311 61.9744 18.6288 63.0626 18.6288C64.7394 18.6288 65.7534 17.9858 66.4162 16.6226L66.7851 16.3387H69.4383L69.6411 16.6226C69.2553 18.3261 68.1305 19.5745 67.0611 20.3323C65.9928 21.1078 64.6652 21.4857 63.117 21.4857C60.9802 21.4857 59.2095 20.7477 57.8641 19.2906C56.5187 17.8334 55.8381 15.9796 55.8381 13.7646C55.8381 11.6833 56.4831 9.84722 57.7909 8.33367C59.0997 6.82013 60.7952 6.04456 62.8222 6.04456C64.9234 6.04456 66.6378 6.76374 67.9089 8.16352C69.1811 9.5643 69.8261 11.5705 69.8261 13.8972V14.3325ZM62.8222 8.88271C60.9426 8.88271 59.5053 10.1885 59.0443 11.9494H66.6377C66.343 10.7 65.3102 8.88271 62.8222 8.88271ZM35.5655 6.63118L35.8425 6.34727V6.32748H38.274L38.551 6.61238V21.0129L38.274 21.2968H35.8603L35.5833 21.0129V19.4795C35.5744 19.4894 35.5566 19.4845 35.5378 19.4795C35.519 19.4756 35.5012 19.4706 35.4913 19.4795C35.1233 19.9534 34.6435 20.3501 34.0727 20.7101C33.9619 20.7814 33.8402 20.8417 33.7235 20.9001L33.6117 20.9565C32.8193 21.3532 31.935 21.5431 30.9576 21.5431C29.1334 21.5431 27.5298 20.7863 26.2033 19.3094C24.8767 17.8334 24.2129 15.9796 24.2129 13.8032C24.2129 11.6269 24.8757 9.77204 26.2033 8.29608C27.5298 6.82013 29.1334 6.06335 30.9576 6.06335C31.935 6.06335 32.8371 6.2523 33.6305 6.64997C33.7779 6.72516 33.9253 6.80133 34.0539 6.8775C34.6435 7.2366 35.1421 7.67187 35.5101 8.16352L35.5655 8.10714V6.63118ZM31.381 18.6852C32.5611 18.6852 33.5375 18.2499 34.3487 17.3606C34.8829 16.7927 35.2519 16.0745 35.4369 15.1842V12.3075C35.2331 11.4567 34.8829 10.7563 34.3487 10.1697C33.5197 9.27939 32.5433 8.84412 31.381 8.84412C30.2206 8.84412 29.3916 9.29918 28.5616 10.1895C27.7504 11.0966 27.327 12.2887 27.327 13.7646C27.327 15.2604 27.7326 16.4524 28.5616 17.3418C29.3916 18.2499 30.2394 18.6852 31.381 18.6852Z" fill="#140F1F"/>
<path d="M79.7783 12.63C79.7783 12.63 78.1936 12.2887 76.8848 11.987C75.6868 11.7021 75.0784 11.343 75.0784 10.4724C75.0784 9.54551 75.945 8.76895 77.8058 8.76895C79.631 8.76895 80.6449 9.6019 80.6449 10.3399L80.9575 10.6238H83.6117L83.8145 10.3587C83.8145 8.40985 82.1743 6.08215 77.879 6.08215C73.4017 6.08215 72.0009 8.78873 72.0009 10.5288C72.0009 11.986 72.5173 13.7083 75.945 14.5224L78.893 15.203C80.3867 15.5443 81.0129 16.0736 81.0129 16.9639C81.0129 17.777 80.2205 18.7613 78.156 18.7613C76.2398 18.7613 75.0794 17.8146 75.023 16.6988L74.6916 16.4148H71.9821L71.7793 16.6988C72.0197 19.1966 73.8251 21.5431 78.1382 21.5431C83.0221 21.5431 84.0173 18.4764 84.0173 16.8689C84.0173 14.7114 82.8193 13.3106 79.7783 12.63Z" fill="#140F1F"/>
</g>
<defs>
<clipPath id="clip0_93_9628">
<rect width="184" height="24.7312" fill="white" transform="translate(0 0.634399)"/>
</clipPath>
</defs>
</svg>
