<svg width="234" height="52" viewBox="0 0 234 52" fill="none" xmlns="http://www.w3.org/2000/svg">
<g clip-path="url(#clip0_93_9301)">
<path d="M72.6721 8.44214C69.9325 8.44214 67.2922 8.78637 66.2169 9.07737C64.6519 9.51742 64.2615 10.2023 63.967 11.6219L57.7566 40.2783C57.6572 40.8639 57.5614 41.3536 57.5614 41.8433C57.5614 43.2629 58.4912 44.1891 60.0065 44.1891C61.6709 44.1891 62.3558 43.1138 62.6965 41.4494L64.4567 33.2837C65.6775 33.4292 67.2922 33.5782 69.5918 33.5782C79.7165 33.5782 86.0227 28.1024 86.0227 19.8373C86.0227 12.5978 80.9834 8.44214 72.6721 8.44214ZM69.3469 28.8832C67.7819 28.8832 66.5576 28.8335 65.4362 28.688L68.7117 13.4779C69.7373 13.3324 71.2562 13.1336 72.8212 13.1336C78.2012 13.1336 80.9408 15.6781 80.9408 19.8834C80.9373 25.2634 77.023 28.8832 69.3469 28.8832Z" fill="black"/>
<path d="M231.995 34.7494C231.165 34.7494 230.625 35.2392 229.6 36.3641C227.79 38.2237 226.665 39.2493 225.249 39.2493C223.978 39.2493 223.293 38.2237 223.293 36.5593C223.293 35.6295 223.489 34.5046 223.733 33.2838L225.543 24.7738H230.973C232.683 24.7738 233.713 23.7943 233.713 22.0341C233.713 21.0547 233.077 20.3236 231.612 20.3236H226.519L227.399 16.3632C227.499 15.7776 227.594 15.2382 227.594 14.7485C227.594 13.3786 226.665 12.3992 225.149 12.3992C223.535 12.3992 222.804 13.4745 222.459 15.1388L221.334 20.3236H219.035C217.275 20.3236 216.249 21.3031 216.249 23.0633C216.249 24.0427 216.934 24.7738 218.4 24.7738H220.405L218.595 33.1844C218.4 34.1142 218.155 35.6295 218.155 37.1946C218.155 41.155 220.209 44.0402 224.61 44.0402C227.154 44.0402 229.401 42.7697 231.115 41.2508C232.779 39.7852 234 37.9753 234 36.8006C234 35.6792 233.12 34.7494 231.995 34.7494Z" fill="black"/>
<path d="M119.519 11.3273C119.519 9.90781 118.54 8.97803 117.024 8.97803C115.41 8.97803 114.679 10.0533 114.334 11.7177L108.223 40.1293C108.078 40.7148 107.979 41.2046 107.979 41.6943C107.979 43.1138 108.958 44.0401 110.424 44.0401C112.088 44.0401 112.819 42.9648 113.163 41.3004L119.274 12.8923C119.374 12.3032 119.519 11.8171 119.519 11.3273Z" fill="black"/>
<path d="M206.809 19.8338C198.984 19.8338 193.654 27.6092 193.654 34.9942C193.654 35.1326 193.657 35.271 193.661 35.4059C192.433 37.269 190.864 39.1995 189.789 39.1995C189.008 39.1995 188.714 38.4649 188.714 37.34C188.714 35.9701 189.104 33.6705 189.544 31.6654L193.604 12.8853C193.703 12.2997 193.799 11.81 193.799 11.3202C193.799 9.90073 192.87 8.97095 191.354 8.97095C189.69 8.97095 189.008 10.0462 188.664 11.7106L186.464 21.8814C185.289 20.6607 183.575 19.8267 180.985 19.8267C175.789 19.8267 170.562 23.8262 168.525 29.962C166.282 35.7608 164.277 39.1924 162.694 39.1924C162.109 39.1924 161.764 38.7027 161.764 37.8723C161.764 35.4272 163.134 29.4617 163.72 26.5765C163.915 25.5012 164.014 25.0612 164.014 24.4259C164.014 22.2754 160.444 19.7309 155.799 19.7309C150.426 19.7309 145.561 23.1342 143.123 28.1876C139.499 34.5896 136.174 39.1924 134.527 39.1924C133.793 39.1924 133.548 38.2626 133.353 37.3825L132.136 30.6434L139.616 24.5324C140.301 23.9468 141.181 23.1129 141.181 22.0376C141.181 20.7174 140.301 19.8373 138.981 19.8373C138.002 19.8373 137.171 20.4229 136.341 21.1078L125.095 30.3985L128.86 12.8924C128.959 12.3068 129.105 11.8171 129.105 11.3273C129.105 9.90783 128.125 8.97804 126.61 8.97804C124.995 8.97804 124.264 10.0533 123.92 11.7177L117.809 40.1293C117.664 40.7149 117.564 41.2046 117.564 41.6943C117.564 43.1138 118.544 44.0401 120.009 44.0401C121.674 44.0401 122.405 42.9648 122.749 41.3004L123.533 37.6345L128.129 33.9189L129.254 39.5899C129.694 41.8398 130.869 44.0401 133.899 44.0401C136.916 44.0401 139.29 41.2862 141.668 37.5635C142.388 41.4637 145.163 44.0401 149.014 44.0401C152.878 44.0401 155.519 41.7405 157.229 38.6601V38.7595C157.229 41.9392 158.844 44.0401 161.679 44.0401C164.245 44.0401 166.374 42.4928 168.276 39.2066C169.355 42.0705 171.768 44.0401 175.126 44.0401C179.086 44.0401 181.921 41.6446 183.731 38.3194V38.614C183.731 42.1344 185.492 44.0436 188.377 44.0436C190.925 44.0436 193.09 42.5638 194.938 40.1577C196.344 42.5638 198.863 44.0436 202.267 44.0436C210.092 44.0436 215.422 36.2682 215.422 28.8335C215.418 23.5991 212.239 19.8338 206.809 19.8338ZM158.056 29.7633C156.636 35.8743 153.606 39.3486 150.181 39.3486C147.882 39.3486 146.611 37.5884 146.611 34.9481C146.611 29.7633 150.376 24.1882 155.412 24.1882C156.927 24.1882 158.102 24.6282 159.128 25.2634L158.056 29.7633ZM185.293 27.1727C183.728 34.3625 180.158 39.3486 176.247 39.3486C174.096 39.3486 172.822 37.6842 172.822 34.9481C172.822 29.7172 176.442 24.2875 181.283 24.2875C183.142 24.2875 184.558 24.9228 185.587 25.7532L185.293 27.1727ZM202.849 39.3486C200.013 39.3486 198.839 37.2938 198.839 34.7032C198.839 29.9585 202.114 24.5324 206.224 24.5324C209.059 24.5324 210.234 26.5871 210.234 29.1777C210.234 33.9686 206.958 39.3486 202.849 39.3486Z" fill="black"/>
<path d="M98.1986 19.8337C90.3735 19.8337 85.0432 27.6091 85.0432 34.9942C85.0432 40.2748 88.2229 44.04 93.649 44.04C101.474 44.04 106.804 36.2646 106.804 28.8299C106.804 23.599 103.625 19.8337 98.1986 19.8337ZM94.2381 39.3485C91.4026 39.3485 90.228 37.2938 90.228 34.7032C90.228 29.9584 93.5035 24.5323 97.613 24.5323C100.449 24.5323 101.623 26.5871 101.623 29.1777C101.62 33.9686 98.3441 39.3485 94.2381 39.3485Z" fill="black"/>
<path d="M23.5285 11.4729C28.5126 11.4729 32.553 9.123 32.553 6.22424C32.553 3.32549 28.5126 0.975586 23.5285 0.975586C18.5443 0.975586 14.5039 3.32549 14.5039 6.22424C14.5039 9.123 18.5443 11.4729 23.5285 11.4729Z" fill="#E6007A"/>
<path d="M23.5285 51.0205C28.5126 51.0205 32.553 48.6706 32.553 45.7719C32.553 42.8731 28.5126 40.5232 23.5285 40.5232C18.5443 40.5232 14.5039 42.8731 14.5039 45.7719C14.5039 48.6706 18.5443 51.0205 23.5285 51.0205Z" fill="#E6007A"/>
<path d="M10.9521 18.7382C13.4442 14.4219 13.428 9.74718 10.916 8.29682C8.40398 6.84646 4.34737 9.16974 1.8553 13.486C-0.636764 17.8023 -0.62059 22.477 1.89143 23.9274C4.40345 25.3777 8.46006 23.0545 10.9521 18.7382Z" fill="#E6007A"/>
<path d="M45.1977 38.5098C47.6898 34.1935 47.675 29.5196 45.1646 28.0702C42.6543 26.6208 38.5991 28.9449 36.107 33.2611C33.6149 37.5774 33.6297 42.2514 36.1401 43.7007C38.6504 45.1501 42.7056 42.8261 45.1977 38.5098Z" fill="#E6007A"/>
<path d="M10.9177 43.6995C13.4297 42.2492 13.4459 37.5744 10.9538 33.2581C8.46177 28.9419 4.40516 26.6186 1.89314 28.069C-0.618881 29.5193 -0.635055 34.1941 1.85701 38.5103C4.34908 42.8266 8.40569 45.1499 10.9177 43.6995Z" fill="#E6007A"/>
<path d="M45.1668 23.9286C47.6772 22.4792 47.6919 17.8052 45.1999 13.489C42.7078 9.17272 38.6526 6.84866 36.1423 8.29803C33.6319 9.74741 33.6171 14.4214 36.1092 18.7376C38.6013 23.0539 42.6565 25.378 45.1668 23.9286Z" fill="#E6007A"/>
</g>
<defs>
<clipPath id="clip0_93_9301">
<rect width="234" height="50.0486" fill="white" transform="translate(0 0.975586)"/>
</clipPath>
</defs>
</svg>
