<svg width="234" height="72" viewBox="0 0 234 72" fill="none" xmlns="http://www.w3.org/2000/svg">
<g clip-path="url(#clip0_93_9333)">
<path d="M97.9144 29.7382C97.3163 27.4041 95.8073 25.6956 92.8474 25.6956C88.489 25.6956 86.6671 29.5388 86.6671 33.4372C86.6671 37.3356 88.489 41.1818 92.8474 41.1818C96.0066 41.1818 97.7549 38.8201 98.0279 35.8603H101.503C101.218 40.7279 97.7733 44.0865 92.8474 44.0865C86.7529 44.0865 83.1091 39.2465 83.1091 33.4372C83.1091 27.628 86.7529 22.791 92.8474 22.791C97.4298 22.8186 101.046 25.3521 101.472 29.7382H97.9144ZM103.61 36.2283C103.61 31.7319 106.315 28.4837 111.042 28.4837C115.768 28.4837 118.471 31.7319 118.471 36.2283C118.471 40.7248 115.765 44.0006 111.042 44.0006C106.318 44.0006 103.61 40.7555 103.61 36.2283ZM115.226 36.2283C115.226 33.6948 113.944 31.0479 111.042 31.0479C108.14 31.0479 106.855 33.6948 106.855 36.2283C106.855 38.7618 108.137 41.4426 111.042 41.4426C113.947 41.4426 115.226 38.7925 115.226 36.2283ZM121.262 23.2756H124.507V26.3428H121.262V23.2756ZM121.262 28.8824H124.507V43.6049H121.262V28.8824ZM128.04 28.8824H131.107V31.0479L131.166 31.1031C131.632 30.3021 132.301 29.6382 133.105 29.1783C133.91 28.7184 134.821 28.4788 135.748 28.4837C138.938 28.4837 140.962 30.1921 140.962 33.4955V43.6172H137.72V34.3512C137.662 32.0447 136.751 31.0479 134.843 31.0479C132.681 31.0479 131.285 32.7563 131.285 34.9187V43.6018H128.04V28.8824ZM162.577 43.6018H160.298L159.758 41.2125C157.85 43.3749 156.111 44.0865 153.624 44.0865C147.529 44.0865 143.885 39.2465 143.885 33.4372C143.885 27.628 147.529 22.791 153.624 22.791C158.065 22.791 161.795 25.1527 162.334 29.7382H158.875C158.531 27.0605 156.197 25.6956 153.636 25.6956C149.281 25.6956 147.456 29.5388 147.456 33.4372C147.456 37.3356 149.281 41.1818 153.636 41.1818C157.28 41.2401 159.273 39.0348 159.329 35.6026H153.921V32.8974H162.577V43.6018ZM168.527 37.0841C168.527 39.3906 169.779 41.4395 172.484 41.4395C174.364 41.4395 175.502 40.6144 176.072 38.9857H179.14C178.428 42.2032 175.695 43.9945 172.478 43.9945C167.877 43.9945 165.276 40.777 165.276 36.2498C165.276 32.0662 168.009 28.4776 172.392 28.4776C177.032 28.4776 179.882 32.6643 179.339 37.0657L168.527 37.0841ZM176.1 34.9371C175.987 32.8882 174.591 31.0387 172.398 31.0387C170.15 31.0387 168.613 32.7471 168.527 34.9371H176.1ZM191.761 33.8083C191.503 32.014 190.194 31.0479 188.387 31.0479C186.709 31.0479 184.345 31.9312 184.345 36.4001C184.345 38.8539 185.427 41.4395 188.246 41.4395C190.126 41.4395 191.436 40.1881 191.749 38.0809H194.994C194.38 41.8934 192.034 44.0006 188.246 44.0006C183.645 44.0006 181.099 40.7279 181.099 36.4001C181.099 31.9588 183.519 28.4837 188.36 28.4837C191.776 28.4837 194.681 30.1921 194.994 33.8083H191.761ZM197.739 23.2756H200.987V34.8328L206.867 28.8824H210.854L205.217 34.293L211.397 43.6018H207.419L202.923 36.4553L200.987 38.3355V43.6018H197.739V23.2756ZM212.262 36.2283C212.262 31.7319 214.967 28.4837 219.691 28.4837C224.414 28.4837 227.11 31.7319 227.11 36.2283C227.11 40.7248 224.405 44.0006 219.679 44.0006C214.952 44.0006 212.262 40.7555 212.262 36.2283ZM223.878 36.2283C223.878 33.6948 222.595 31.0479 219.691 31.0479C216.786 31.0479 215.507 33.6948 215.507 36.2283C215.507 38.7618 216.789 41.4426 219.691 41.4426C222.592 41.4426 223.878 38.7925 223.878 36.2283Z" fill="#4C4C4C"/>
<path d="M65.096 35.8695C65.1214 41.6269 63.4391 47.2625 60.2617 52.0637C57.0843 56.8649 52.5546 60.6161 47.2453 62.843C41.936 65.0699 36.0856 65.6724 30.4339 64.5744C24.7822 63.4764 19.583 60.7272 15.4937 56.6744C11.4044 52.6215 8.60874 47.4472 7.46017 41.8055C6.3116 36.1639 6.86172 30.3083 9.04097 24.9793C11.2202 19.6503 14.9307 15.0871 19.7033 11.8669C24.4759 8.64663 30.0961 6.91388 35.8535 6.88774C43.5744 6.8535 50.9927 9.88761 56.4767 15.3227C61.9607 20.7578 65.0611 28.1486 65.096 35.8695Z" fill="#8DC63F"/>
<path d="M62.9026 35.8758C62.9268 41.1995 61.3718 46.4108 58.4342 50.8508C55.4967 55.2908 51.3085 58.7599 46.3993 60.8196C41.4901 62.8793 36.0803 63.437 30.8542 62.4222C25.628 61.4074 20.8202 58.8656 17.0386 55.1183C13.257 51.3711 10.6715 46.5866 9.60908 41.3699C8.54666 36.1532 9.05502 30.7386 11.0699 25.8108C13.0847 20.8831 16.5156 16.6634 20.9286 13.6855C25.3416 10.7076 30.5386 9.10517 35.8623 9.08085C39.3972 9.0647 42.9006 9.74496 46.1726 11.0828C49.4445 12.4206 52.421 14.3898 54.9319 16.878C57.4428 19.3661 59.4391 22.3245 60.8067 25.5841C62.1743 28.8438 62.8865 32.3409 62.9026 35.8758Z" fill="#F9E988"/>
<path d="M36.4757 10.826C38.187 10.5206 39.9388 10.5206 41.65 10.826C43.3777 11.0998 45.0476 11.6596 46.5913 12.4823C48.1249 13.3258 49.453 14.4698 50.7718 15.5495C52.0907 16.6291 53.4066 17.7211 54.658 18.9234C55.934 20.1055 57.0479 21.4515 57.9705 22.9261C58.9219 24.3907 59.701 25.9602 60.2924 27.6035C61.4431 30.8858 61.7706 34.4003 61.2463 37.8387H61.0745C60.5693 34.5538 59.7244 31.3303 58.5533 28.22C57.992 26.6819 57.3312 25.1819 56.575 23.7297C55.7802 22.2816 54.9057 20.8788 53.9556 19.5276C52.9864 18.16 51.7989 16.9611 50.4406 15.9789C49.0757 15.0066 47.5053 14.3748 45.984 13.7767C44.4627 13.1786 42.9413 12.5835 41.3617 12.1265C39.7821 11.6695 38.1657 11.329 36.4818 10.9978L36.4757 10.826Z" fill="white"/>
<path d="M49.6339 26.3674C47.6802 25.8 45.6466 24.9994 43.6039 24.1897C43.4873 23.6744 43.0303 23.0334 42.1101 22.2512C40.7698 21.0888 38.2547 21.1194 36.0801 21.6378C33.6815 21.0734 31.3106 20.8741 29.0255 21.42C10.4231 26.5422 20.9742 39.0655 14.1405 51.641C15.1128 53.7021 25.5934 65.75 40.7575 62.508C40.7575 62.508 35.574 50.046 47.2753 44.065C56.7682 39.1974 63.6295 30.186 49.6339 26.3674Z" fill="#8BC53F"/>
<path d="M51.9312 34.56C51.9331 34.7835 51.8685 35.0025 51.7457 35.1892C51.6229 35.376 51.4475 35.5221 51.2416 35.609C51.0357 35.6959 50.8086 35.7198 50.5891 35.6775C50.3697 35.6353 50.1677 35.5288 50.0088 35.3716C49.8499 35.2145 49.7412 35.0136 49.6966 34.7947C49.6519 34.5757 49.6733 34.3483 49.758 34.1415C49.8427 33.9347 49.9869 33.7576 50.1723 33.6328C50.3577 33.508 50.576 33.4411 50.7994 33.4404C50.9473 33.4396 51.0938 33.468 51.2307 33.5238C51.3676 33.5796 51.4921 33.6618 51.5972 33.7658C51.7023 33.8698 51.7859 33.9934 51.8432 34.1297C51.9005 34.2659 51.9304 34.4121 51.9312 34.56Z" fill="white"/>
<path d="M36.0801 21.6316C37.4358 21.7298 42.3402 23.3309 43.6039 24.1897C42.558 21.1225 39.0031 20.7238 36.0801 21.6316Z" fill="#009345"/>
<path d="M37.3718 29.367C37.3718 30.3983 37.066 31.4064 36.493 32.2639C35.9201 33.1214 35.1057 33.7897 34.153 34.1843C33.2002 34.579 32.1518 34.6823 31.1403 34.4811C30.1289 34.2799 29.1998 33.7833 28.4706 33.054C27.7413 32.3248 27.2447 31.3957 27.0436 30.3843C26.8424 29.3728 26.9456 28.3244 27.3403 27.3717C27.7349 26.4189 28.4032 25.6045 29.2607 25.0316C30.1182 24.4586 31.1263 24.1528 32.1576 24.1528C33.5405 24.1528 34.8667 24.7022 35.8446 25.68C36.8224 26.6579 37.3718 27.9841 37.3718 29.367Z" fill="white"/>
<path d="M35.8286 29.4131C35.8292 30.1375 35.6149 30.8459 35.2129 31.4485C34.8108 32.0512 34.2391 32.521 33.57 32.7987C32.9008 33.0763 32.1644 33.1493 31.4538 33.0083C30.7432 32.8674 30.0904 32.5188 29.5779 32.0068C29.0654 31.4947 28.7163 30.8422 28.5747 30.1317C28.4332 29.4212 28.5055 28.6847 28.7826 28.0154C29.0597 27.346 29.5291 26.7739 30.1314 26.3713C30.7337 25.9688 31.4419 25.7539 32.1664 25.7539C33.1369 25.7547 34.0674 26.1404 34.754 26.8264C35.4405 27.5123 35.827 28.4426 35.8286 29.4131Z" fill="#58595B"/>
<path d="M56.1487 36.8541C51.9313 39.8262 47.1342 42.0683 40.3312 42.0683C37.1475 42.0683 36.5034 38.6944 34.3993 40.3446C33.3104 41.2003 29.4918 43.105 26.4399 42.9701C23.3881 42.8351 18.4653 41.0408 17.1004 34.5537C16.5575 41.0408 16.2784 45.8195 13.843 51.2975C18.6953 59.0666 30.2616 65.0568 40.7575 62.4804C39.6319 54.6039 46.5147 46.8869 50.3946 42.9394C51.8608 41.4457 54.6887 39.0042 56.1487 36.8418V36.8541Z" fill="#8BC53F"/>
<path d="M55.9829 37.0505C54.6393 38.206 53.1402 39.1672 51.5294 39.906C49.9238 40.669 48.2499 41.279 46.5299 41.728C44.8123 42.1727 43.0149 42.507 41.1961 42.3414C39.3772 42.1758 37.5154 41.5562 36.3162 40.1944L36.3744 40.1269C37.859 41.0869 39.5551 41.4243 41.2482 41.4734C42.9672 41.5233 44.6863 41.3803 46.3735 41.047C48.0779 40.6918 49.7455 40.1784 51.3546 39.5134C52.9897 38.889 54.5291 38.0383 55.9277 36.9861L55.9829 37.0505Z" fill="#58595B"/>
</g>
<defs>
<clipPath id="clip0_93_9333">
<rect width="234" height="70.4808" fill="white" transform="translate(0 0.759521)"/>
</clipPath>
</defs>
</svg>
