<svg width="141" height="26" viewBox="0 0 141 26" fill="none" xmlns="http://www.w3.org/2000/svg">
<path d="M26.886 20.2945C26.5226 20.2945 26.2573 20.2088 26.0903 20.0373C25.9233 19.8657 25.8398 19.5933 25.8398 19.22V2.52736C25.8398 2.15406 25.9233 1.88669 26.0903 1.72526C26.2573 1.55374 26.5226 1.46799 26.886 1.46799H32.7507C34.5484 1.46799 36.071 1.8312 37.3186 2.55763C38.576 3.27396 39.5239 4.33333 40.1625 5.73574C40.8108 7.13815 41.135 8.84827 41.135 10.8661C41.135 12.8941 40.8108 14.6092 40.1625 16.0116C39.5239 17.414 38.576 18.4785 37.3186 19.2049C36.071 19.9313 34.5484 20.2945 32.7507 20.2945H26.886ZM32.7507 16.7683C34.1456 16.7683 35.2016 16.2689 35.9187 15.2701C36.6358 14.2612 36.9944 12.7932 36.9944 10.8661C36.9944 8.94917 36.6358 7.49127 35.9187 6.49243C35.2016 5.48351 34.1456 4.97905 32.7507 4.97905H29.9068V16.7683H32.7507Z" fill="#140F1F"/>
<path d="M49.428 20.5215C47.1293 20.5215 45.4151 19.891 44.2854 18.6298C43.1557 17.3586 42.5908 15.598 42.5908 13.3481C42.5908 10.8157 43.1557 8.95926 44.2854 7.77881C45.4151 6.59837 46.9721 6.00815 48.9565 6.00815C50.2728 6.00815 51.3485 6.31587 52.1835 6.93132C53.0283 7.54676 53.6423 8.37408 54.0254 9.41327C54.4183 10.4525 54.6148 11.6279 54.6148 12.9395C54.6148 13.0908 54.5264 13.2926 54.3495 13.5448C54.1825 13.7971 53.991 14.0241 53.7749 14.2258C53.5588 14.4276 53.3918 14.5285 53.2739 14.5285H46.5988C46.6872 15.5576 46.9819 16.2891 47.4829 16.7229C47.9938 17.1467 48.701 17.3586 49.6048 17.3586C50.096 17.3586 50.538 17.3031 50.931 17.1921C51.3337 17.071 51.7611 16.9146 52.2129 16.7229C52.488 16.5918 52.6746 16.5262 52.7729 16.5262C52.9497 16.5262 53.1413 16.6574 53.3476 16.9197C53.5637 17.1719 53.7454 17.4645 53.8928 17.7974C54.0499 18.1304 54.1285 18.3877 54.1285 18.5693C54.1285 18.9829 53.8535 19.336 53.3033 19.6286C52.7631 19.9212 52.1196 20.1432 51.373 20.2945C50.6363 20.4459 49.9879 20.5215 49.428 20.5215ZM50.8426 11.8801C50.8426 11.0528 50.6854 10.3919 50.371 9.89756C50.0567 9.39309 49.5852 9.14086 48.9565 9.14086C47.6598 9.14086 46.8739 10.0539 46.5988 11.8801H50.8426Z" fill="#140F1F"/>
<path d="M60.3586 20.5215C59.111 20.5215 58.1581 20.1634 57.4999 19.447C56.8516 18.7206 56.5274 17.6209 56.5274 16.1478V0.877765C56.5274 0.292588 57.053 0 58.1041 0H58.8408C59.3811 0 59.7741 0.0756694 60.0197 0.227008C60.2751 0.368258 60.4028 0.585177 60.4028 0.877765V16.1932C60.4028 16.6069 60.4765 16.9045 60.6238 17.0861C60.7712 17.2678 61.0167 17.3586 61.3606 17.3586C61.449 17.3586 61.5816 17.3384 61.7584 17.298C61.8075 17.2879 61.8567 17.2778 61.9058 17.2678C61.9549 17.2577 62.0089 17.2526 62.0679 17.2526C62.2152 17.2526 62.3478 17.3888 62.4657 17.6612C62.5934 17.9236 62.6916 18.2212 62.7604 18.5541C62.8292 18.877 62.8636 19.0889 62.8636 19.1898C62.8636 20.0776 62.0286 20.5215 60.3586 20.5215Z" fill="#140F1F"/>
<path d="M69.8746 20.5215C67.5759 20.5215 65.8617 19.891 64.732 18.6298C63.6023 17.3586 63.0374 15.598 63.0374 13.3481C63.0374 10.8157 63.6023 8.95926 64.732 7.77881C65.8617 6.59837 67.4187 6.00815 69.403 6.00815C70.7194 6.00815 71.7951 6.31587 72.6301 6.93132C73.4749 7.54676 74.0888 8.37408 74.472 9.41327C74.8649 10.4525 75.0614 11.6279 75.0614 12.9395C75.0614 13.0908 74.973 13.2926 74.7961 13.5448C74.6291 13.7971 74.4376 14.0241 74.2215 14.2258C74.0053 14.4276 73.8384 14.5285 73.7205 14.5285H67.0454C67.1338 15.5576 67.4285 16.2891 67.9295 16.7229C68.4403 17.1467 69.1476 17.3586 70.0514 17.3586C70.5426 17.3586 70.9846 17.3031 71.3776 17.1921C71.7803 17.071 72.2077 16.9146 72.6595 16.7229C72.9346 16.5918 73.1212 16.5262 73.2195 16.5262C73.3963 16.5262 73.5879 16.6574 73.7941 16.9197C74.0103 17.1719 74.192 17.4645 74.3393 17.7974C74.4965 18.1304 74.5751 18.3877 74.5751 18.5693C74.5751 18.9829 74.3 19.336 73.7499 19.6286C73.2096 19.9212 72.5662 20.1432 71.8196 20.2945C71.0829 20.4459 70.4345 20.5215 69.8746 20.5215ZM71.2892 11.8801C71.2892 11.0528 71.132 10.3919 70.8176 9.89756C70.5033 9.39309 70.0318 9.14086 69.403 9.14086C68.1064 9.14086 67.3205 10.0539 67.0454 11.8801H71.2892Z" fill="#140F1F"/>
<path d="M82.1903 26C78.0349 26 75.9573 24.759 75.9573 22.2771C75.9573 21.5809 76.1587 20.9655 76.5614 20.4307C76.974 19.896 77.5683 19.4723 78.3444 19.1595L78.3591 19.0536C78.0055 18.8619 77.7304 18.5894 77.5339 18.2363C77.3375 17.8832 77.2392 17.4847 77.2392 17.0407C77.2392 16.5867 77.3719 16.168 77.6371 15.7846C77.9121 15.4012 78.3051 15.0733 78.8159 14.8009C78.1479 14.4175 77.6224 13.8929 77.2392 13.227C76.8659 12.5611 76.6793 11.7489 76.6793 10.7905C76.6793 9.156 77.195 7.95033 78.2265 7.17346C79.2678 6.39659 80.6333 6.00815 82.3229 6.00815C83.0302 6.00815 83.7031 6.07877 84.3416 6.22002H88.5559C88.8309 6.22002 89.0323 6.33101 89.16 6.55297C89.2877 6.76484 89.3516 7.10283 89.3516 7.56694V8.02095C89.3516 8.86845 89.1404 9.2922 88.718 9.2922C88.5706 9.2922 88.3692 9.28211 88.1138 9.26193C87.8682 9.24175 87.6914 9.21653 87.5834 9.18626L87.5392 9.2922C87.657 9.45363 87.7553 9.68064 87.8339 9.97323C87.9125 10.2557 87.9517 10.5281 87.9517 10.7905C87.9517 12.3946 87.4606 13.5902 86.4782 14.3772C85.4959 15.1541 84.209 15.5425 82.6176 15.5425C81.5468 15.5425 81.0115 15.7897 81.0115 16.2841C81.0115 16.506 81.1195 16.6826 81.3356 16.8137C81.5517 16.9348 81.8268 17.0307 82.1608 17.1013C82.5046 17.1719 82.9909 17.2476 83.6196 17.3283C84.0715 17.3787 84.4939 17.4393 84.8868 17.5099C86.1246 17.7621 87.1118 18.1758 87.8486 18.7509C88.5854 19.3159 88.9537 20.2088 88.9537 21.4296C88.9537 22.3477 88.6738 23.1498 88.1138 23.8359C87.5539 24.5219 86.7631 25.0516 85.7415 25.4249C84.7198 25.8083 83.5361 26 82.1903 26ZM82.3229 12.6822C82.9025 12.6822 83.374 12.5258 83.7375 12.213C84.1108 11.9003 84.2974 11.4261 84.2974 10.7905C84.2974 10.1548 84.1108 9.68064 83.7375 9.36787C83.374 9.04501 82.9025 8.88359 82.3229 8.88359C81.7433 8.88359 81.2669 9.04501 80.8936 9.36787C80.5301 9.68064 80.3484 10.1548 80.3484 10.7905C80.3484 11.4261 80.5301 11.9003 80.8936 12.213C81.2669 12.5258 81.7433 12.6822 82.3229 12.6822ZM82.485 22.8522C83.3691 22.8522 84.0371 22.7361 84.489 22.5041C84.9507 22.272 85.1815 21.9492 85.1815 21.5355C85.1815 21.253 85.0489 21.026 84.7837 20.8545C84.5283 20.6931 84.1108 20.5568 83.5312 20.4459C82.9614 20.345 82.1608 20.2592 81.1293 20.1886C80.6873 20.35 80.3435 20.5619 80.0979 20.8242C79.8523 21.0865 79.7295 21.3589 79.7295 21.6414C79.7295 22.0248 79.9554 22.3225 80.4073 22.5343C80.8592 22.7462 81.5517 22.8522 82.485 22.8522Z" fill="#140F1F"/>
<path d="M93.8724 20.5215C92.5364 20.5215 91.554 20.1634 90.9253 19.447C90.3064 18.7206 89.997 17.7621 89.997 16.5716C89.997 15.6737 90.1787 14.8665 90.5422 14.1502C90.9057 13.4237 91.6424 12.8133 92.7525 12.319C93.8625 11.8246 95.449 11.5774 97.512 11.5774V10.6845C97.512 10.1599 97.3499 9.77144 97.0257 9.51921C96.7015 9.26698 96.1858 9.14086 95.4785 9.14086C94.8891 9.14086 94.3832 9.20644 93.9608 9.3376C93.5384 9.45867 93.0816 9.62515 92.5904 9.83702C92.335 9.95809 92.1778 10.0186 92.1189 10.0186C91.942 10.0186 91.7456 9.88242 91.5295 9.61001C91.3232 9.3376 91.1414 9.02484 90.9843 8.67171C90.8271 8.31859 90.7485 8.05122 90.7485 7.86962C90.7485 7.55685 90.9646 7.25922 91.3968 6.97672C91.8389 6.68413 92.443 6.45208 93.2093 6.28056C93.9755 6.09895 94.8252 6.00815 95.7585 6.00815C97.7232 6.00815 99.1525 6.41172 100.046 7.21886C100.94 8.01591 101.387 9.11059 101.387 10.5029V15.5425C101.387 16.3799 101.407 17.0307 101.446 17.4948C101.495 17.9589 101.559 18.4179 101.638 18.8719C101.687 19.1444 101.711 19.336 101.711 19.447C101.711 19.6488 101.525 19.8153 101.152 19.9465C100.788 20.0776 100.371 20.1735 99.8991 20.234C99.4275 20.2945 99.0493 20.3248 98.7644 20.3248C98.4599 20.3248 98.2389 20.1936 98.1014 19.9313C97.9737 19.6589 97.8705 19.2906 97.7919 18.8265C97.7821 18.766 97.7723 18.7055 97.7624 18.6449C97.7526 18.5844 97.7379 18.5239 97.7182 18.4633C97.62 18.655 97.4088 18.9123 97.0846 19.2352C96.7703 19.558 96.338 19.8556 95.7879 20.1281C95.2378 20.3904 94.5993 20.5215 93.8724 20.5215ZM95.1543 17.3586C95.6455 17.3586 96.1072 17.2022 96.5394 16.8894C96.9717 16.5666 97.2958 16.1579 97.512 15.6636V14.1804C95.0659 14.1804 93.8429 14.8413 93.8429 16.163C93.8429 16.5161 93.9559 16.8036 94.1818 17.0256C94.4176 17.2476 94.7417 17.3586 95.1543 17.3586Z" fill="#140F1F"/>
<path d="M108.28 20.5215C107.033 20.5215 106.08 20.1634 105.422 19.447C104.773 18.7206 104.449 17.6209 104.449 16.1478V9.36787H104.037C103.762 9.36787 103.56 9.26193 103.433 9.05006C103.315 8.83818 103.256 8.49515 103.256 8.02095V7.56694C103.256 7.09274 103.315 6.74971 103.433 6.53783C103.56 6.32596 103.762 6.22002 104.037 6.22002H104.449L104.788 3.6624C104.867 3.0974 105.338 2.8149 106.203 2.8149H107.028C107.48 2.8149 107.809 2.88553 108.015 3.02678C108.231 3.16803 108.339 3.3799 108.339 3.6624V6.22002H109.621C109.896 6.22002 110.093 6.32596 110.211 6.53783C110.338 6.74971 110.402 7.09274 110.402 7.56694V8.02095C110.402 8.49515 110.338 8.83818 110.211 9.05006C110.093 9.26193 109.896 9.36787 109.621 9.36787H108.339V16.1932C108.339 16.6069 108.408 16.9045 108.546 17.0861C108.693 17.2678 108.934 17.3586 109.268 17.3586C109.366 17.3586 109.499 17.3434 109.666 17.3132C109.833 17.2728 109.936 17.2526 109.975 17.2526C110.132 17.2526 110.27 17.3888 110.388 17.6612C110.515 17.9236 110.614 18.2161 110.682 18.539C110.761 18.8619 110.8 19.0788 110.8 19.1898C110.8 20.0776 109.96 20.5215 108.28 20.5215Z" fill="#140F1F"/>
<path d="M118.607 20.5215C116.308 20.5215 114.594 19.891 113.464 18.6298C112.335 17.3586 111.77 15.598 111.77 13.3481C111.77 10.8157 112.335 8.95926 113.464 7.77881C114.594 6.59837 116.151 6.00815 118.135 6.00815C119.452 6.00815 120.527 6.31587 121.362 6.93132C122.207 7.54676 122.821 8.37408 123.204 9.41327C123.597 10.4525 123.794 11.6279 123.794 12.9395C123.794 13.0908 123.705 13.2926 123.528 13.5448C123.361 13.7971 123.17 14.0241 122.954 14.2258C122.738 14.4276 122.571 14.5285 122.453 14.5285H115.778C115.866 15.5576 116.161 16.2891 116.662 16.7229C117.173 17.1467 117.88 17.3586 118.784 17.3586C119.275 17.3586 119.717 17.3031 120.11 17.1921C120.513 17.071 120.94 16.9146 121.392 16.7229C121.667 16.5918 121.854 16.5262 121.952 16.5262C122.129 16.5262 122.32 16.6574 122.526 16.9197C122.743 17.1719 122.924 17.4645 123.072 17.7974C123.229 18.1304 123.307 18.3877 123.307 18.5693C123.307 18.9829 123.032 19.336 122.482 19.6286C121.942 19.9212 121.299 20.1432 120.552 20.2945C119.815 20.4459 119.167 20.5215 118.607 20.5215ZM120.021 11.8801C120.021 11.0528 119.864 10.3919 119.55 9.89756C119.236 9.39309 118.764 9.14086 118.135 9.14086C116.839 9.14086 116.053 10.0539 115.778 11.8801H120.021Z" fill="#140F1F"/>
<path d="M12.1271 20.0222C12.0092 20.0222 11.8815 19.9869 11.744 19.9162L0.736761 15.0734C0.471527 14.9624 0.279969 14.8212 0.162087 14.6496C0.0540291 14.468 0 14.2309 0 13.9383V13.4238C0 13.1413 0.0540291 12.9143 0.162087 12.7428C0.279969 12.5713 0.471527 12.4199 0.736761 12.2888L11.6998 7.49132C11.8668 7.43078 11.9994 7.40051 12.0976 7.40051C12.3628 7.40051 12.4955 7.77382 12.4955 8.52042V8.92903C12.4955 9.8068 12.2302 10.3567 11.6998 10.5786L4.05219 13.7113L11.744 16.8138C12.019 16.9349 12.2155 17.1366 12.3334 17.4191C12.4611 17.6915 12.5249 18.0396 12.5249 18.4634V18.9023C12.5249 19.2756 12.4856 19.5581 12.4071 19.7498C12.3383 19.9314 12.245 20.0222 12.1271 20.0222Z" fill="#140F1F"/>
<path d="M14.2733 22.4284C13.5169 22.4284 13.1387 22.2821 13.1387 21.9895C13.1387 21.929 13.1731 21.8029 13.2418 21.6112L20.8599 2.20956C20.9778 1.92706 21.1694 1.72023 21.4346 1.58907C21.6998 1.45791 22.0437 1.39233 22.4661 1.39233H23.0997C23.4631 1.39233 23.7382 1.43269 23.9249 1.51341C24.1115 1.59412 24.2048 1.70006 24.2048 1.83122C24.2048 1.9422 24.1704 2.06831 24.1017 2.20956L16.4836 21.6112C16.2773 22.156 15.7468 22.4284 14.8922 22.4284H14.2733Z" fill="url(#paint0_linear_1_1132)"/>
<path d="M14.2733 22.4284C13.5169 22.4284 13.1387 22.2821 13.1387 21.9895C13.1387 21.929 13.1731 21.8029 13.2418 21.6112L20.8599 2.20956C20.9778 1.92706 21.1694 1.72023 21.4346 1.58907C21.6998 1.45791 22.0437 1.39233 22.4661 1.39233H23.0997C23.4631 1.39233 23.7382 1.43269 23.9249 1.51341C24.1115 1.59412 24.2048 1.70006 24.2048 1.83122C24.2048 1.9422 24.1704 2.06831 24.1017 2.20956L16.4836 21.6112C16.2773 22.156 15.7468 22.4284 14.8922 22.4284H14.2733Z" fill="url(#paint1_linear_1_1132)"/>
<path d="M128.216 20.205C127.961 20.205 127.833 19.8317 127.833 19.0851V18.6462C127.833 18.2124 127.892 17.8593 128.01 17.5869C128.138 17.3145 128.339 17.1177 128.614 16.9966L136.291 13.8942L128.643 10.7615C128.368 10.6404 128.167 10.4437 128.039 10.1713C127.921 9.89886 127.862 9.54573 127.862 9.1119V8.70328C127.862 7.95668 127.995 7.58337 128.26 7.58337C128.359 7.58337 128.486 7.61364 128.643 7.67418L139.621 12.4716C139.886 12.6028 140.073 12.7592 140.181 12.9408C140.299 13.1123 140.358 13.3342 140.358 13.6067V14.1212C140.358 14.4138 140.299 14.6509 140.181 14.8325C140.073 15.004 139.886 15.1453 139.621 15.2562L128.614 20.0991C128.476 20.1697 128.344 20.205 128.216 20.205Z" fill="#140F1F"/>
<defs>
<linearGradient id="paint0_linear_1_1132" x1="13.1387" y1="22.4284" x2="24.6292" y2="22.194" gradientUnits="userSpaceOnUse">
<stop stop-color="#FF7E33"/>
<stop offset="1" stop-color="#FF7E33"/>
</linearGradient>
<linearGradient id="paint1_linear_1_1132" x1="13.1387" y1="22.4284" x2="24.6292" y2="22.194" gradientUnits="userSpaceOnUse">
<stop stop-color="#7733FF"/>
<stop offset="1" stop-color="#AA80FF"/>
</linearGradient>
</defs>
</svg>
