<svg width="1144" height="194" viewBox="0 0 1144 194" fill="none" xmlns="http://www.w3.org/2000/svg">
<path d="M0 107.574V78.2486L101.588 35.3881V67.4629L34.5176 92.6294L35.57 91.0785V94.8147L34.5176 93.1933L101.588 118.43V150.435L0 107.574Z" fill="black" fill-opacity="0.03"/>
<path d="M191.06 0L144.756 172.852H115.5L161.804 0H191.06Z" fill="black" fill-opacity="0.03"/>
<path d="M251.977 151.14H198.867V6.76745H251.906C266.546 6.76745 279.151 9.65771 289.721 15.4382C300.339 21.1718 308.524 29.4431 314.277 40.2522C320.03 51.0143 322.906 63.8912 322.906 78.883C322.906 93.9218 320.03 106.846 314.277 117.655C308.571 128.464 300.409 136.759 289.792 142.539C279.174 148.273 266.569 151.14 251.977 151.14ZM233.595 121.391H250.644C258.688 121.391 265.494 120.028 271.06 117.302C276.672 114.53 280.905 110.041 283.758 103.838C286.658 97.5875 288.108 89.2691 288.108 78.883C288.108 68.4969 286.658 60.2255 283.758 54.069C280.858 47.8656 276.579 43.4009 270.919 40.6752C265.307 37.9024 258.384 36.516 250.153 36.516H233.595V121.391Z" fill="black" fill-opacity="0.03"/>
<path d="M388.576 153.184C377.304 153.184 367.576 150.952 359.391 146.487C351.252 141.975 344.985 135.56 340.588 127.242C336.239 118.877 334.064 108.937 334.064 97.423C334.064 86.2379 336.262 76.4627 340.659 68.0974C345.055 59.6851 351.252 53.1526 359.25 48.5C367.248 43.8004 376.673 41.4506 387.524 41.4506C395.194 41.4506 402.21 42.649 408.571 45.0458C414.932 47.4426 420.428 50.9908 425.058 55.6904C429.689 60.39 433.29 66.1941 435.863 73.1025C438.435 79.9639 439.721 87.8358 439.721 96.718V105.318H346.061V85.298H407.799C407.753 81.6323 406.887 78.366 405.204 75.4993C403.52 72.6325 401.205 70.4002 398.258 68.8023C395.358 67.1575 392.014 66.335 388.225 66.335C384.39 66.335 380.952 67.2045 377.912 68.9433C374.872 70.6352 372.463 72.9615 370.686 75.9223C368.909 78.836 367.973 82.1492 367.88 85.8619V106.235C367.88 110.652 368.745 114.53 370.476 117.866C372.206 121.156 374.662 123.717 377.842 125.55C381.023 127.383 384.811 128.299 389.208 128.299C392.248 128.299 395.007 127.876 397.486 127.031C399.965 126.185 402.093 124.939 403.871 123.294C405.648 121.649 406.981 119.629 407.87 117.232L439.37 118.148C438.061 125.245 435.184 131.425 430.741 136.688C426.345 141.905 420.568 145.97 413.412 148.884C406.256 151.751 397.977 153.184 388.576 153.184Z" fill="black" fill-opacity="0.03"/>
<path d="M486.572 6.76745V151.14H452.265V6.76745H486.572Z" fill="black" fill-opacity="0.03"/>
<path d="M553.803 153.184C542.531 153.184 532.802 150.952 524.617 146.487C516.479 141.975 510.212 135.56 505.815 127.242C501.465 118.877 499.29 108.937 499.29 97.423C499.29 86.2379 501.489 76.4627 505.885 68.0974C510.282 59.6851 516.479 53.1526 524.477 48.5C532.475 43.8004 541.899 41.4506 552.751 41.4506C560.421 41.4506 567.437 42.649 573.798 45.0458C580.159 47.4426 585.654 50.9908 590.285 55.6904C594.915 60.39 598.517 66.1941 601.089 73.1025C603.662 79.9639 604.948 87.8358 604.948 96.718V105.318H511.287V85.298H573.026C572.979 81.6323 572.114 78.366 570.43 75.4993C568.746 72.6325 566.431 70.4002 563.485 68.8023C560.585 67.1575 557.241 66.335 553.452 66.335C549.617 66.335 546.179 67.2045 543.139 68.9433C540.099 70.6352 537.69 72.9615 535.913 75.9223C534.135 78.836 533.2 82.1492 533.106 85.8619V106.235C533.106 110.652 533.972 114.53 535.702 117.866C537.433 121.156 539.888 123.717 543.069 125.55C546.249 127.383 550.038 128.299 554.434 128.299C557.474 128.299 560.234 127.876 562.713 127.031C565.192 126.185 567.32 124.939 569.097 123.294C570.875 121.649 572.208 119.629 573.096 117.232L604.597 118.148C603.287 125.245 600.411 131.425 595.968 136.688C591.571 141.905 585.795 145.97 578.639 148.884C571.483 151.751 563.204 153.184 553.803 153.184Z" fill="black" fill-opacity="0.03"/>
<path d="M667.724 194C657.481 194 648.711 192.567 641.415 189.7C634.119 186.833 628.389 182.909 624.226 177.927C620.064 172.946 617.561 167.306 616.719 161.009L649.202 159.176C649.81 161.385 650.933 163.312 652.57 164.956C654.254 166.601 656.429 167.87 659.095 168.763C661.807 169.656 664.988 170.102 668.636 170.102C674.389 170.102 679.136 168.693 682.878 165.873C686.667 163.1 688.561 158.236 688.561 151.281V132.247H687.368C686.012 135.584 683.954 138.568 681.194 141.2C678.435 143.832 674.997 145.899 670.881 147.403C666.812 148.907 662.135 149.659 656.85 149.659C648.992 149.659 641.789 147.826 635.241 144.161C628.74 140.448 623.525 134.714 619.596 126.96C615.714 119.159 613.773 109.125 613.773 96.859C613.773 84.2171 615.784 73.8074 619.806 65.6301C623.829 57.4058 629.091 51.3198 635.592 47.3721C642.14 43.4244 649.179 41.4506 656.709 41.4506C662.369 41.4506 667.21 42.4375 671.232 44.4113C675.301 46.3382 678.645 48.829 681.265 51.8837C683.884 54.9385 685.872 58.1107 687.228 61.4004H688.21V42.8605H722.377V151.563C722.377 160.727 720.085 168.458 715.501 174.755C710.918 181.053 704.51 185.823 696.278 189.065C688.046 192.355 678.528 194 667.724 194ZM668.776 124.563C672.939 124.563 676.494 123.459 679.44 121.25C682.387 119.041 684.655 115.869 686.246 111.733C687.836 107.598 688.631 102.64 688.631 96.859C688.631 90.9845 687.836 85.9324 686.246 81.7028C684.702 77.4261 682.434 74.1364 679.44 71.8336C676.494 69.5308 672.939 68.3794 668.776 68.3794C664.52 68.3794 660.919 69.5543 657.972 71.9041C655.026 74.2539 652.781 77.5671 651.237 81.8438C649.74 86.0734 648.992 91.0785 648.992 96.859C648.992 102.64 649.764 107.598 651.307 111.733C652.851 115.869 655.072 119.041 657.972 121.25C660.919 123.459 664.52 124.563 668.776 124.563Z" fill="black" fill-opacity="0.03"/>
<path d="M769.648 152.972C762.773 152.972 756.669 151.821 751.337 149.518C746.052 147.168 741.866 143.644 738.779 138.944C735.739 134.197 734.219 128.252 734.219 121.109C734.219 115.094 735.271 110.018 737.376 105.882C739.48 101.747 742.38 98.3864 746.075 95.8016C749.77 93.2168 754.026 91.2665 758.844 89.9506C763.661 88.5877 768.806 87.6713 774.279 87.2013C780.406 86.6374 785.34 86.0499 789.082 85.439C792.824 84.781 795.536 83.8646 797.22 82.6897C798.951 81.4678 799.816 79.7524 799.816 77.5436V77.1911C799.816 73.5724 798.577 70.7762 796.098 68.8023C793.619 66.8285 790.275 65.8416 786.065 65.8416C781.528 65.8416 777.88 66.8285 775.121 68.8023C772.361 70.7762 770.607 73.5019 769.859 76.9797L738.218 75.8518C739.153 69.2723 741.562 63.3978 745.444 58.2282C749.373 53.0116 754.751 48.923 761.58 45.9622C768.456 42.9545 776.711 41.4506 786.346 41.4506C793.221 41.4506 799.559 42.273 805.358 43.9179C811.158 45.5157 816.21 47.8656 820.513 50.9673C824.816 54.0221 828.136 57.7817 830.475 62.2464C832.86 66.711 834.053 71.8101 834.053 77.5436V151.14H801.78V136.054H800.939C799.021 139.719 796.565 142.821 793.572 145.359C790.625 147.897 787.141 149.8 783.119 151.069C779.143 152.338 774.653 152.972 769.648 152.972ZM780.242 130.414C783.937 130.414 787.258 129.662 790.204 128.158C793.198 126.655 795.583 124.587 797.361 121.955C799.138 119.276 800.027 116.174 800.027 112.65V102.358C799.044 102.875 797.852 103.344 796.448 103.767C795.092 104.19 793.595 104.59 791.958 104.966C790.321 105.342 788.638 105.671 786.907 105.953C785.176 106.235 783.516 106.493 781.926 106.728C778.699 107.245 775.939 108.044 773.647 109.125C771.402 110.206 769.672 111.616 768.456 113.355C767.286 115.047 766.702 117.067 766.702 119.417C766.702 122.989 767.964 125.715 770.49 127.594C773.063 129.474 776.313 130.414 780.242 130.414Z" fill="black" fill-opacity="0.03"/>
<path d="M910.878 42.8605V68.2384H842.896V42.8605H910.878ZM857.138 16.9186H891.445V117.091C891.445 119.206 891.772 120.921 892.427 122.237C893.128 123.506 894.134 124.422 895.444 124.986C896.753 125.503 898.32 125.762 900.144 125.762C901.454 125.762 902.834 125.644 904.284 125.409C905.78 125.127 906.903 124.892 907.651 124.704L912.843 149.589C911.206 150.059 908.891 150.646 905.897 151.351C902.951 152.056 899.419 152.502 895.303 152.69C887.259 153.066 880.36 152.126 874.607 149.871C868.901 147.568 864.527 143.996 861.487 139.156C858.494 134.315 857.044 128.229 857.138 120.898V16.9186Z" fill="black" fill-opacity="0.03"/>
<path d="M972.62 153.184C961.348 153.184 951.619 150.952 943.434 146.487C935.296 141.975 929.028 135.56 924.632 127.242C920.282 118.877 918.107 108.937 918.107 97.423C918.107 86.2379 920.305 76.4627 924.702 68.0974C929.099 59.6851 935.296 53.1526 943.294 48.5C951.292 43.8004 960.716 41.4506 971.567 41.4506C979.238 41.4506 986.254 42.649 992.615 45.0458C998.976 47.4426 1004.47 50.9908 1009.1 55.6904C1013.73 60.39 1017.33 66.1941 1019.91 73.1025C1022.48 79.9639 1023.76 87.8358 1023.76 96.718V105.318H930.104V85.298H991.843C991.796 81.6323 990.931 78.366 989.247 75.4993C987.563 72.6325 985.248 70.4002 982.302 68.8023C979.402 67.1575 976.057 66.335 972.269 66.335C968.434 66.335 964.996 67.2045 961.956 68.9433C958.916 70.6352 956.507 72.9615 954.729 75.9223C952.952 78.836 952.017 82.1492 951.923 85.8619V106.235C951.923 110.652 952.788 114.53 954.519 117.866C956.25 121.156 958.705 123.717 961.886 125.55C965.066 127.383 968.855 128.299 973.251 128.299C976.291 128.299 979.051 127.876 981.53 127.031C984.009 126.185 986.137 124.939 987.914 123.294C989.691 121.649 991.024 119.629 991.913 117.232L1023.41 118.148C1022.1 125.245 1019.23 131.425 1014.78 136.688C1010.39 141.905 1004.61 145.97 997.456 148.884C990.299 151.751 982.021 153.184 972.62 153.184Z" fill="black" fill-opacity="0.03"/>
<path d="M1144 107.574L1042.41 150.435V118.43L1109.48 93.1933L1108.5 94.8147V91.0785L1109.48 92.6294L1042.41 67.4629V35.3881L1144 78.2486V107.574Z" fill="black" fill-opacity="0.03"/>
</svg>
